<mxfile host="app.diagrams.net" modified="2023-05-21T17:28:20.699Z" agent="Mozilla/5.0 (Macintosh; Intel Mac OS X 10_15_7) AppleWebKit/605.1.15 (KHTML, like Gecko) Version/16.5 Safari/605.1.15" etag="PeqkZtXwZrHcXuktt0DR" version="21.3.2" type="device">
  <diagram name="Page-1" id="znCi_eDcc8BJwInauxU6">
    <mxGraphModel dx="838" dy="772" grid="1" gridSize="10" guides="1" tooltips="1" connect="1" arrows="1" fold="1" page="1" pageScale="1" pageWidth="827" pageHeight="1169" math="0" shadow="0">
      <root>
        <mxCell id="0" />
        <mxCell id="1" parent="0" />
        <mxCell id="sEQcVC5N6mKRaAeDNIAp-2" value="" style="rounded=0;whiteSpace=wrap;html=1;" vertex="1" parent="1">
          <mxGeometry y="260" width="510" height="260" as="geometry" />
        </mxCell>
        <mxCell id="sEQcVC5N6mKRaAeDNIAp-4" value="Model" style="rounded=1;whiteSpace=wrap;html=1;fillColor=#fff2cc;strokeColor=#d6b656;" vertex="1" parent="1">
          <mxGeometry x="50" y="290" width="120" height="60" as="geometry" />
        </mxCell>
        <mxCell id="sEQcVC5N6mKRaAeDNIAp-6" value="View" style="rounded=1;whiteSpace=wrap;html=1;fillColor=#d5e8d4;strokeColor=#82b366;" vertex="1" parent="1">
          <mxGeometry x="50" y="415" width="120" height="60" as="geometry" />
        </mxCell>
        <mxCell id="sEQcVC5N6mKRaAeDNIAp-7" value="View-Model" style="rounded=1;whiteSpace=wrap;html=1;fillColor=#dae8fc;strokeColor=#6c8ebf;" vertex="1" parent="1">
          <mxGeometry x="210" y="355" width="120" height="60" as="geometry" />
        </mxCell>
        <mxCell id="sEQcVC5N6mKRaAeDNIAp-8" value="" style="endArrow=classic;html=1;rounded=0;entryX=1;entryY=0.5;entryDx=0;entryDy=0;exitX=0.5;exitY=0;exitDx=0;exitDy=0;" edge="1" parent="1" source="sEQcVC5N6mKRaAeDNIAp-7" target="sEQcVC5N6mKRaAeDNIAp-4">
          <mxGeometry width="50" height="50" relative="1" as="geometry">
            <mxPoint x="390" y="430" as="sourcePoint" />
            <mxPoint x="440" y="380" as="targetPoint" />
            <Array as="points">
              <mxPoint x="270" y="320" />
            </Array>
          </mxGeometry>
        </mxCell>
        <mxCell id="sEQcVC5N6mKRaAeDNIAp-9" value="Update" style="edgeLabel;html=1;align=center;verticalAlign=middle;resizable=0;points=[];" vertex="1" connectable="0" parent="sEQcVC5N6mKRaAeDNIAp-8">
          <mxGeometry x="-0.227" y="-1" relative="1" as="geometry">
            <mxPoint x="-22" y="1" as="offset" />
          </mxGeometry>
        </mxCell>
        <mxCell id="sEQcVC5N6mKRaAeDNIAp-10" value="" style="endArrow=classic;html=1;rounded=0;entryX=0.5;entryY=1;entryDx=0;entryDy=0;exitX=1;exitY=0.5;exitDx=0;exitDy=0;" edge="1" parent="1" source="sEQcVC5N6mKRaAeDNIAp-6" target="sEQcVC5N6mKRaAeDNIAp-7">
          <mxGeometry width="50" height="50" relative="1" as="geometry">
            <mxPoint x="280" y="365" as="sourcePoint" />
            <mxPoint x="180" y="330" as="targetPoint" />
            <Array as="points">
              <mxPoint x="270" y="445" />
            </Array>
          </mxGeometry>
        </mxCell>
        <mxCell id="sEQcVC5N6mKRaAeDNIAp-11" value="Event" style="edgeLabel;html=1;align=center;verticalAlign=middle;resizable=0;points=[];" vertex="1" connectable="0" parent="sEQcVC5N6mKRaAeDNIAp-10">
          <mxGeometry x="-0.227" y="-1" relative="1" as="geometry">
            <mxPoint x="10" y="-1" as="offset" />
          </mxGeometry>
        </mxCell>
        <mxCell id="sEQcVC5N6mKRaAeDNIAp-12" value="" style="endArrow=classic;html=1;rounded=0;entryX=0.5;entryY=0;entryDx=0;entryDy=0;exitX=0;exitY=0.75;exitDx=0;exitDy=0;" edge="1" parent="1" source="sEQcVC5N6mKRaAeDNIAp-7" target="sEQcVC5N6mKRaAeDNIAp-6">
          <mxGeometry width="50" height="50" relative="1" as="geometry">
            <mxPoint x="180" y="455" as="sourcePoint" />
            <mxPoint x="280" y="425" as="targetPoint" />
            <Array as="points">
              <mxPoint x="110" y="400" />
            </Array>
          </mxGeometry>
        </mxCell>
        <mxCell id="sEQcVC5N6mKRaAeDNIAp-13" value="Binding" style="edgeLabel;html=1;align=center;verticalAlign=middle;resizable=0;points=[];" vertex="1" connectable="0" parent="sEQcVC5N6mKRaAeDNIAp-12">
          <mxGeometry x="-0.227" y="-1" relative="1" as="geometry">
            <mxPoint as="offset" />
          </mxGeometry>
        </mxCell>
        <mxCell id="sEQcVC5N6mKRaAeDNIAp-14" value="" style="endArrow=classic;html=1;rounded=0;entryX=0;entryY=0.25;entryDx=0;entryDy=0;exitX=0.5;exitY=1;exitDx=0;exitDy=0;" edge="1" parent="1" source="sEQcVC5N6mKRaAeDNIAp-4" target="sEQcVC5N6mKRaAeDNIAp-7">
          <mxGeometry width="50" height="50" relative="1" as="geometry">
            <mxPoint x="220" y="410" as="sourcePoint" />
            <mxPoint x="120" y="425" as="targetPoint" />
            <Array as="points">
              <mxPoint x="110" y="370" />
            </Array>
          </mxGeometry>
        </mxCell>
        <mxCell id="sEQcVC5N6mKRaAeDNIAp-15" value="Notify" style="edgeLabel;html=1;align=center;verticalAlign=middle;resizable=0;points=[];" vertex="1" connectable="0" parent="sEQcVC5N6mKRaAeDNIAp-14">
          <mxGeometry x="-0.227" y="-1" relative="1" as="geometry">
            <mxPoint x="33" as="offset" />
          </mxGeometry>
        </mxCell>
        <mxCell id="sEQcVC5N6mKRaAeDNIAp-16" value="UserDefaults" style="shape=cylinder3;whiteSpace=wrap;html=1;boundedLbl=1;backgroundOutline=1;size=15;" vertex="1" parent="1">
          <mxGeometry x="380" y="340" width="80" height="90" as="geometry" />
        </mxCell>
        <mxCell id="sEQcVC5N6mKRaAeDNIAp-17" value="" style="endArrow=classic;html=1;rounded=0;entryX=0.5;entryY=0;entryDx=0;entryDy=0;entryPerimeter=0;exitX=0.75;exitY=0;exitDx=0;exitDy=0;" edge="1" parent="1" source="sEQcVC5N6mKRaAeDNIAp-7" target="sEQcVC5N6mKRaAeDNIAp-16">
          <mxGeometry width="50" height="50" relative="1" as="geometry">
            <mxPoint x="240" y="430" as="sourcePoint" />
            <mxPoint x="290" y="380" as="targetPoint" />
            <Array as="points">
              <mxPoint x="300" y="310" />
              <mxPoint x="420" y="310" />
            </Array>
          </mxGeometry>
        </mxCell>
        <mxCell id="sEQcVC5N6mKRaAeDNIAp-18" value="Save" style="edgeLabel;html=1;align=center;verticalAlign=middle;resizable=0;points=[];" vertex="1" connectable="0" parent="sEQcVC5N6mKRaAeDNIAp-17">
          <mxGeometry x="0.3026" y="1" relative="1" as="geometry">
            <mxPoint x="-22" as="offset" />
          </mxGeometry>
        </mxCell>
        <mxCell id="sEQcVC5N6mKRaAeDNIAp-19" value="" style="endArrow=classic;html=1;rounded=0;entryX=0.75;entryY=1;entryDx=0;entryDy=0;exitX=0.5;exitY=1;exitDx=0;exitDy=0;exitPerimeter=0;" edge="1" parent="1" source="sEQcVC5N6mKRaAeDNIAp-16" target="sEQcVC5N6mKRaAeDNIAp-7">
          <mxGeometry width="50" height="50" relative="1" as="geometry">
            <mxPoint x="310" y="495" as="sourcePoint" />
            <mxPoint x="430" y="480" as="targetPoint" />
            <Array as="points">
              <mxPoint x="420" y="450" />
              <mxPoint x="300" y="450" />
            </Array>
          </mxGeometry>
        </mxCell>
        <mxCell id="sEQcVC5N6mKRaAeDNIAp-20" value="Retreive" style="edgeLabel;html=1;align=center;verticalAlign=middle;resizable=0;points=[];" vertex="1" connectable="0" parent="sEQcVC5N6mKRaAeDNIAp-19">
          <mxGeometry x="0.3026" y="1" relative="1" as="geometry">
            <mxPoint x="34" as="offset" />
          </mxGeometry>
        </mxCell>
        <mxCell id="sEQcVC5N6mKRaAeDNIAp-21" value="iOS App" style="text;html=1;strokeColor=#9673a6;fillColor=#e1d5e7;align=center;verticalAlign=middle;whiteSpace=wrap;rounded=0;" vertex="1" parent="1">
          <mxGeometry x="240" y="260" width="60" height="30" as="geometry" />
        </mxCell>
        <mxCell id="sEQcVC5N6mKRaAeDNIAp-22" value="" style="rounded=0;whiteSpace=wrap;html=1;" vertex="1" parent="1">
          <mxGeometry x="120" y="660" width="310" height="190" as="geometry" />
        </mxCell>
        <mxCell id="sEQcVC5N6mKRaAeDNIAp-23" value="Firebase" style="text;html=1;strokeColor=#9673a6;fillColor=#e1d5e7;align=center;verticalAlign=middle;whiteSpace=wrap;rounded=0;" vertex="1" parent="1">
          <mxGeometry x="240" y="660" width="60" height="30" as="geometry" />
        </mxCell>
        <mxCell id="sEQcVC5N6mKRaAeDNIAp-24" value="" style="endArrow=classic;html=1;rounded=0;exitX=0.25;exitY=0;exitDx=0;exitDy=0;" edge="1" parent="1" source="sEQcVC5N6mKRaAeDNIAp-22">
          <mxGeometry width="50" height="50" relative="1" as="geometry">
            <mxPoint x="220" y="520" as="sourcePoint" />
            <mxPoint x="196" y="520" as="targetPoint" />
          </mxGeometry>
        </mxCell>
        <mxCell id="sEQcVC5N6mKRaAeDNIAp-25" value="Reply" style="edgeLabel;html=1;align=center;verticalAlign=middle;resizable=0;points=[];" vertex="1" connectable="0" parent="sEQcVC5N6mKRaAeDNIAp-24">
          <mxGeometry x="-0.2572" relative="1" as="geometry">
            <mxPoint as="offset" />
          </mxGeometry>
        </mxCell>
        <mxCell id="sEQcVC5N6mKRaAeDNIAp-26" value="" style="endArrow=classic;html=1;rounded=0;exitX=0.75;exitY=1;exitDx=0;exitDy=0;entryX=0.845;entryY=0.005;entryDx=0;entryDy=0;entryPerimeter=0;" edge="1" parent="1" source="sEQcVC5N6mKRaAeDNIAp-2" target="sEQcVC5N6mKRaAeDNIAp-22">
          <mxGeometry width="50" height="50" relative="1" as="geometry">
            <mxPoint x="208" y="670" as="sourcePoint" />
            <mxPoint x="206" y="530" as="targetPoint" />
          </mxGeometry>
        </mxCell>
        <mxCell id="sEQcVC5N6mKRaAeDNIAp-27" value="Request" style="edgeLabel;html=1;align=center;verticalAlign=middle;resizable=0;points=[];" vertex="1" connectable="0" parent="sEQcVC5N6mKRaAeDNIAp-26">
          <mxGeometry x="-0.2572" relative="1" as="geometry">
            <mxPoint as="offset" />
          </mxGeometry>
        </mxCell>
        <mxCell id="sEQcVC5N6mKRaAeDNIAp-29" value="Firestore" style="rounded=1;whiteSpace=wrap;html=1;fillColor=#ffe6cc;strokeColor=#d79b00;" vertex="1" parent="1">
          <mxGeometry x="130" y="740" width="120" height="60" as="geometry" />
        </mxCell>
        <mxCell id="sEQcVC5N6mKRaAeDNIAp-30" value="Autentificare&lt;br&gt;Autorizare" style="rounded=1;whiteSpace=wrap;html=1;fillColor=#f8cecc;strokeColor=#b85450;" vertex="1" parent="1">
          <mxGeometry x="300" y="740" width="120" height="60" as="geometry" />
        </mxCell>
      </root>
    </mxGraphModel>
  </diagram>
</mxfile>
